<?xml version="1.0" encoding="UTF-8" standalone="no"?>
<!-- Created with Inkscape (http://www.inkscape.org/) -->

<svg
   xmlns:dc="http://purl.org/dc/elements/1.1/"
   xmlns:cc="http://creativecommons.org/ns#"
   xmlns:rdf="http://www.w3.org/1999/02/22-rdf-syntax-ns#"
   xmlns:svg="http://www.w3.org/2000/svg"
   xmlns="http://www.w3.org/2000/svg"
   xmlns:sodipodi="http://sodipodi.sourceforge.net/DTD/sodipodi-0.dtd"
   xmlns:inkscape="http://www.inkscape.org/namespaces/inkscape"
   width="210mm"
   height="297mm"
   viewBox="0 0 744.09448819 1052.3622047"
   id="svg2"
   version="1.1"
   inkscape:version="0.91 r13725"
   sodipodi:docname="guido.svg">
  <defs
     id="defs4" />
  <sodipodi:namedview
     id="base"
     pagecolor="#ffffff"
     bordercolor="#666666"
     borderopacity="1.0"
     inkscape:pageopacity="0.0"
     inkscape:pageshadow="2"
     inkscape:zoom="1"
     inkscape:cx="223.71429"
     inkscape:cy="760"
     inkscape:document-units="px"
     inkscape:current-layer="layer1"
     showgrid="false"
     inkscape:window-width="1600"
     inkscape:window-height="854"
     inkscape:window-x="0"
     inkscape:window-y="25"
     inkscape:window-maximized="1" />
  <metadata
     id="metadata7">
    <rdf:RDF>
      <cc:Work
         rdf:about="">
        <dc:format>image/svg+xml</dc:format>
        <dc:type
           rdf:resource="http://purl.org/dc/dcmitype/StillImage" />
        <dc:title></dc:title>
      </cc:Work>
    </rdf:RDF>
  </metadata>
  <g
     inkscape:label="Layer 1"
     inkscape:groupmode="layer"
     id="layer1">
    <g
       style="font-style:normal;font-variant:normal;font-weight:bold;font-stretch:normal;font-size:80px;line-height:125%;font-family:Comfortaa;-inkscape-font-specification:'Comfortaa, Bold';text-align:start;letter-spacing:0px;word-spacing:0px;writing-mode:lr-tb;text-anchor:start;fill:none;fill-opacity:0.75294119;stroke:#000000;stroke-width:2;stroke-linecap:butt;stroke-linejoin:miter;stroke-opacity:0.75294119;stroke-miterlimit:4;stroke-dasharray:none"
       id="text3340">
      <path
         d="m 109,250.77628 q -2.89062,0 -5.39062,1.09375 -2.5,1.09375 -4.335942,2.96875 -1.835938,1.83593 -2.929688,4.33593 -1.054687,2.5 -1.054687,5.3125 0,2.8125 1.054687,5.3125 1.09375,2.5 2.929688,4.375 1.835942,1.83594 4.335942,2.92969 2.5,1.09375 5.39062,1.09375 2.85156,0 5.35156,-1.09375 2.5,-1.09375 4.33594,-2.96875 1.875,-1.875 2.92969,-4.33594 1.09375,-2.5 1.09375,-5.3125 0,-2.8125 -1.09375,-5.27343 -1.05469,-2.5 -2.92969,-4.375 -1.83594,-1.875 -4.33594,-2.96875 -2.5,-1.09375 -5.35156,-1.09375 z m 13.71094,30.78125 q -5.85938,4.80468 -13.71094,4.80468 -9.0625,0 -15.46875,-6.40625 -6.40625,-6.40625 -6.40625,-15.46875 0,-9.0625 6.40625,-15.46875 6.40625,-6.40625 15.46875,-6.40625 8.98438,0 15.46875,6.40625 6.40625,6.40625 6.40625,15.46875 l 0,21.71875 q 0,2.8125 -0.85937,5.3125 -0.85938,2.5 -2.38282,4.57032 -1.52343,2.10937 -3.59375,3.78906 -2.07031,1.67969 -4.49218,2.8125 -2.38282,1.17187 -5,1.79687 -2.61719,0.625 -5.23438,0.625 -3.125,0 -6.13281,-0.82031 -3.00781,-0.78125 -5.703127,-2.34375 -2.695313,-1.5625 -4.960938,-3.86719 -2.226562,-2.30468 -3.789063,-5.15625 -0.624999,-0.89843 -0.624999,-2.1875 0,-1.75781 1.171875,-2.92968 1.171875,-1.13282 2.929687,-1.13282 1.171875,0 1.914063,0.54688 0.781249,0.54687 2.109375,2.42187 1.328124,1.875 2.343749,2.85157 4.453128,4.45312 10.742188,4.45312 6.32813,0 10.70312,-4.375 2.69532,-3.28125 2.69532,-6.36719 l 0,-4.64843 z"
         style="fill:none;fill-opacity:0.75294119;stroke:#000000;stroke-opacity:0.75294119;stroke-width:2;stroke-miterlimit:4;stroke-dasharray:none"
         id="path3368" />
      <path
         d="m 173.76563,286.36221 q -1.75782,0 -2.89063,-1.17187 -1.13281,-1.17188 -1.17187,-2.85156 -2.69532,2.10937 -5.70313,3.08593 -3.00781,0.9375 -6.52344,0.9375 -4.17968,0 -7.89062,-1.60156 -3.71094,-1.64062 -6.48438,-4.41406 -2.77343,-2.77344 -4.41406,-6.48438 -1.60156,-3.71093 -1.60156,-7.89062 l 0,-19.29688 q 0,-1.67968 1.17187,-2.85156 1.21094,-1.21094 2.92969,-1.21094 1.67969,0 2.85156,1.21094 1.21094,1.17188 1.21094,2.85156 l 0,19.29688 q 0,2.53906 0.9375,4.76562 0.97656,2.22657 2.61719,3.90625 1.67969,1.64063 3.90625,2.61719 2.22656,0.9375 4.76562,0.9375 2.5,0 4.72657,-0.9375 2.22656,-0.97656 3.90625,-2.65625 1.67968,-1.67969 2.61718,-3.86719 0.97657,-2.22656 0.97657,-4.76562 l 0,-19.29688 q 0,-1.67968 1.17187,-2.85156 1.21094,-1.21094 2.92969,-1.21094 1.67969,0 2.85156,1.21094 1.21094,1.17188 1.21094,2.85156 l 0,35.625 q 0,1.67969 -1.21094,2.89063 -1.17187,1.17187 -2.89062,1.17187 z"
         style="fill:none;fill-opacity:0.75294119;stroke:#000000;stroke-opacity:0.75294119;stroke-width:2;stroke-miterlimit:4;stroke-dasharray:none"
         id="path3370" />
      <path
         d="m 195.05469,234.83878 q 0,1.99218 -1.40625,3.39843 -1.40625,1.40625 -3.39844,1.40625 -1.99219,0 -3.39844,-1.40625 -1.40625,-1.40625 -1.40625,-3.39843 0,-1.99219 1.40625,-3.39844 1.40625,-1.40625 3.39844,-1.40625 1.99219,0 3.39844,1.40625 1.40625,1.40625 1.40625,3.39844 z m -8.86719,47.42187 0,-35.54687 q 0,-1.71875 1.17188,-2.89063 1.21093,-1.21094 2.89062,-1.21094 1.67969,0 2.85156,1.21094 1.21094,1.17188 1.25,2.89063 l 0,35.54687 q -0.0391,1.71875 -1.25,2.92969 -1.17187,1.17187 -2.85156,1.17187 -1.67969,0 -2.89062,-1.17187 -1.17188,-1.21094 -1.17188,-2.92969 z"
         style="fill:none;fill-opacity:0.75294119;stroke:#000000;stroke-opacity:0.75294119;stroke-width:2;stroke-miterlimit:4;stroke-dasharray:none"
         id="path3372" />
      <path
         d="m 238.33594,264.48721 q 0,-2.8125 -1.09375,-5.27343 -1.05469,-2.5 -2.92969,-4.375 -1.83594,-1.875 -4.33594,-2.96875 -2.5,-1.09375 -5.35156,-1.09375 -2.89062,0 -5.39062,1.09375 -2.5,1.09375 -4.33594,2.96875 -1.83594,1.83593 -2.92969,4.33593 -1.05469,2.5 -1.05469,5.3125 0,2.8125 1.05469,5.3125 1.09375,2.5 2.92969,4.375 1.83594,1.83594 4.33594,2.92969 2.5,1.09375 5.39062,1.09375 2.85156,0 5.35156,-1.09375 2.5,-1.09375 4.33594,-2.96875 1.875,-1.875 2.92969,-4.33594 1.09375,-2.5 1.09375,-5.3125 z m -13.71094,-21.875 q 7.77344,0 13.71094,4.80469 l 0,-19.49219 q 0,-1.75781 1.13281,-2.89062 1.17188,-1.17188 2.92969,-1.17188 1.71875,0 2.89062,1.17188 1.21094,1.13281 1.21094,2.89062 l 0,36.5625 q 0,9.14063 -6.40625,15.46875 -6.48437,6.40625 -15.46875,6.40625 -9.0625,0 -15.46875,-6.40625 -6.40625,-6.40625 -6.40625,-15.46875 0,-9.0625 6.40625,-15.46875 6.40625,-6.40625 15.46875,-6.40625 z"
         style="fill:none;fill-opacity:0.75294119;stroke:#000000;stroke-opacity:0.75294119;stroke-width:2;stroke-miterlimit:4;stroke-dasharray:none"
         id="path3374" />
      <path
         d="m 296.5,264.48721 q 0,9.14063 -6.40625,15.46875 -6.48437,6.40625 -15.46875,6.40625 -9.0625,0 -15.46875,-6.40625 -6.40625,-6.40625 -6.40625,-15.46875 0,-9.0625 6.40625,-15.46875 6.40625,-6.40625 15.46875,-6.40625 8.98438,0 15.46875,6.40625 3.20313,3.20313 4.76563,7.07032 1.60156,3.86718 1.64062,8.39843 z m -21.875,-13.71093 q -2.89062,0 -5.39062,1.09375 -2.5,1.09375 -4.33594,2.96875 -1.83594,1.83593 -2.92969,4.33593 -1.05469,2.5 -1.05469,5.3125 0,2.8125 1.05469,5.3125 1.09375,2.5 2.92969,4.375 1.83594,1.83594 4.33594,2.92969 2.5,1.09375 5.39062,1.09375 2.85156,0 5.35156,-1.09375 2.5,-1.09375 4.33594,-2.96875 1.875,-1.875 2.92969,-4.33594 1.09375,-2.5 1.09375,-5.3125 0,-2.8125 -1.09375,-5.27343 -1.05469,-2.5 -2.92969,-4.375 -1.83594,-1.875 -4.33594,-2.96875 -2.5,-1.09375 -5.35156,-1.09375 z"
         style="fill:none;fill-opacity:0.75294119;stroke:#000000;stroke-opacity:0.75294119;stroke-width:2;stroke-miterlimit:4;stroke-dasharray:none"
         id="path3376" />
    </g>
  </g>
</svg>
